<?xml version="1.0" standalone="no"?>
<!DOCTYPE svg PUBLIC "-//W3C//DTD SVG 20010904//EN"
 "http://www.w3.org/TR/2001/REC-SVG-20010904/DTD/svg10.dtd">
<svg version="1.0" xmlns="http://www.w3.org/2000/svg"
 width="100.000000pt" height="100.000000pt" viewBox="0 0 100.000000 100.000000"
 preserveAspectRatio="xMidYMid meet">

<g transform="translate(0.000000,100.000000) scale(0.100000,-0.100000)"
fill="#000000" stroke="none">
<path d="M375 890 c-75 -37 -75 -37 -75 -398 l0 -320 24 -29 c32 -38 84 -53
185 -53 62 0 91 5 121 20 67 34 71 52 68 282 l-3 202 -34 23 c-26 18 -48 23
-93 23 -33 0 -68 -5 -79 -11 -19 -10 -20 -7 -17 63 3 71 4 73 31 76 17 2 27
-2 28 -10 0 -7 1 -29 2 -48 l2 -35 83 -3 82 -3 0 71 c0 87 -17 123 -70 150
-56 28 -198 28 -255 0z m243 -441 c3 -35 2 -36 -37 -43 -37 -6 -40 -8 -43 -44
-2 -29 -7 -38 -25 -40 -20 -3 -22 -10 -25 -75 -3 -72 -3 -72 -31 -72 l-28 0 0
142 c0 79 3 147 6 153 8 13 55 13 55 0 0 -14 31 -12 60 5 42 24 65 15 68 -26z"/>
<path d="M508 379 c-25 -14 -23 -49 2 -49 16 0 20 7 20 30 0 17 -1 30 -2 30
-2 0 -11 -5 -20 -11z"/>
</g>
</svg>
