<?xml version="1.0" standalone="no"?>
<!DOCTYPE svg PUBLIC "-//W3C//DTD SVG 20010904//EN"
 "http://www.w3.org/TR/2001/REC-SVG-20010904/DTD/svg10.dtd">
<svg version="1.0" xmlns="http://www.w3.org/2000/svg"
 width="100.000000pt" height="100.000000pt" viewBox="0 0 100.000000 100.000000"
 preserveAspectRatio="xMidYMid meet">

<g transform="translate(0.000000,100.000000) scale(0.100000,-0.100000)"
fill="#000000" stroke="none">
<path d="M298 801 c-159 -17 -181 -30 -198 -120 -13 -69 -13 -293 0 -362 21
-108 68 -123 400 -123 242 0 332 12 367 46 31 31 44 108 44 258 0 225 -20 272
-126 290 -81 14 -392 21 -487 11z m248 -227 c63 -36 114 -70 114 -74 0 -10
-222 -140 -239 -140 -8 0 -11 42 -11 140 0 98 3 140 11 140 7 0 63 -30 125
-66z"/>
</g>
</svg>
