<?xml version="1.0" standalone="no"?>
<!DOCTYPE svg PUBLIC "-//W3C//DTD SVG 20010904//EN"
 "http://www.w3.org/TR/2001/REC-SVG-20010904/DTD/svg10.dtd">
<svg version="1.0" xmlns="http://www.w3.org/2000/svg"
 width="100.000000pt" height="100.000000pt" viewBox="0 0 100.000000 100.000000"
 preserveAspectRatio="xMidYMid meet">

<g transform="translate(0.000000,100.000000) scale(0.100000,-0.100000)"
fill="#000000" stroke="none">
<path d="M272 862 c-61 -22 -107 -62 -129 -112 -14 -34 -18 -135 -14 -395 l1
-70 21 40 c12 22 28 48 36 57 12 13 17 52 21 158 5 157 14 182 82 228 34 23
40 23 217 20 201 -3 212 -6 261 -78 21 -31 22 -43 22 -209 0 -147 -3 -181 -17
-206 -17 -30 -25 -145 -11 -145 17 0 77 63 94 98 15 31 18 68 19 232 2 219 -2
247 -42 304 -51 73 -88 84 -313 91 -176 5 -200 4 -248 -13z"/>
<path d="M320 732 c-54 -27 -70 -69 -70 -188 l0 -101 47 24 c39 19 49 30 60
64 33 112 154 152 238 78 41 -37 59 -86 51 -143 -5 -34 -3 -46 10 -57 10 -8
30 -31 45 -53 l29 -38 10 26 c5 15 10 89 10 164 0 224 -19 242 -250 242 -118
0 -152 -3 -180 -18z m345 -52 c4 -6 1 -17 -5 -26 -15 -18 -42 0 -33 22 6 16
29 19 38 4z"/>
<path d="M436 578 c-14 -13 -28 -35 -31 -49 -6 -25 -5 -26 54 -32 34 -4 76
-13 95 -21 41 -17 46 -13 46 31 0 79 -105 123 -164 71z"/>
</g>
</svg>
