<?xml version="1.0" standalone="no"?>
<!DOCTYPE svg PUBLIC "-//W3C//DTD SVG 20010904//EN"
 "http://www.w3.org/TR/2001/REC-SVG-20010904/DTD/svg10.dtd">
<svg version="1.0" xmlns="http://www.w3.org/2000/svg"
 width="100.000000pt" height="100.000000pt" viewBox="0 0 100.000000 100.000000"
 preserveAspectRatio="xMidYMid meet">

<g transform="translate(0.000000,100.000000) scale(0.100000,-0.100000)"
fill="#000000" stroke="none">
<path d="M159 841 l-29 -29 0 -312 0 -312 29 -29 29 -29 312 0 312 0 29 29 29
29 0 312 0 312 -29 29 -29 29 -312 0 -312 0 -29 -29z m431 -121 c15 -37 64
-80 91 -80 16 0 19 -7 19 -45 0 -51 -8 -54 -67 -30 -19 8 -37 15 -39 15 -2 0
-4 -37 -4 -83 0 -103 -11 -142 -52 -184 -97 -100 -258 -33 -258 109 0 77 66
148 138 148 31 0 32 -2 32 -40 0 -34 -3 -40 -20 -40 -26 0 -70 -43 -70 -68 0
-11 9 -31 21 -46 25 -32 64 -34 96 -4 22 21 23 26 23 200 l0 178 39 0 c34 0
40 -4 51 -30z"/>
</g>
</svg>
